<?xml version="1.0"?>
<svg xmlns="http://www.w3.org/2000/svg" width="512" height="512" viewBox="0 0 128 128"><g><path d="M99.125,40.1H96.75V17.934A6.758,6.758,0,0,0,90,11.184H84.991c-.024,0-.048.006-.072.007a1.7,1.7,0,0,0-.344.05,1.152,1.152,0,0,0-.114.035,1.771,1.771,0,0,0-.3.127c-.021.012-.045.016-.065.029A133.282,133.282,0,0,1,15.563,30.41H11.75A11.764,11.764,0,0,0,0,42.16V59.451A11.763,11.763,0,0,0,11.75,71.2H14.5L7.821,110.093a5.75,5.75,0,0,0,5.666,6.723h9.135a5.737,5.737,0,0,0,5.667-4.776l2.1-12.2h3.6a5.735,5.735,0,0,0,5.667-4.777l1.659-9.652A5.748,5.748,0,0,0,35.64,78.69H34.018l1.037-6.037A133.232,133.232,0,0,1,84.016,90.131l.041.023.043.025.012,0a1.745,1.745,0,0,0,.411.176l.023.007a1.748,1.748,0,0,0,.454.067h5a6.758,6.758,0,0,0,6.75-6.75V61.521h2.375a7.759,7.759,0,0,0,7.75-7.75V47.847A7.759,7.759,0,0,0,99.125,40.1ZM3.5,59.451V42.16a8.259,8.259,0,0,1,8.25-8.25h3.813A136.768,136.768,0,0,0,83.25,15.983V85.628A136.759,136.759,0,0,0,33.961,68.955c-.015,0-.029-.01-.044-.013s-.051,0-.076,0A136.656,136.656,0,0,0,15.563,67.7H11.75A8.259,8.259,0,0,1,3.5,59.451ZM35.64,82.19a2.249,2.249,0,0,1,2.217,2.63L36.2,94.472a2.244,2.244,0,0,1-2.218,1.869h-3L32.8,85.76l.613-3.57Zm-10.8,29.257a2.246,2.246,0,0,1-2.218,1.869H13.487a2.25,2.25,0,0,1-2.217-2.631l6.776-39.442a133.354,133.354,0,0,1,13.538.944ZM93.25,83.684A3.254,3.254,0,0,1,90,86.934H86.75V14.684H90a3.254,3.254,0,0,1,3.25,3.25v65.75Zm10.125-29.913a4.255,4.255,0,0,1-4.25,4.25H96.75V43.6h2.375a4.254,4.254,0,0,1,4.25,4.25Z"/><path d="M46.245,66.58a1.75,1.75,0,0,0,2.13-1.708V36.738a1.75,1.75,0,0,0-2.13-1.708,141.484,141.484,0,0,1-30.682,3.38H11.75A3.755,3.755,0,0,0,8,42.16V59.451a3.755,3.755,0,0,0,3.75,3.75h3.813A141.5,141.5,0,0,1,46.245,66.58ZM11.5,59.451V42.16a.253.253,0,0,1,.25-.25h3.813A144.948,144.948,0,0,0,44.875,38.9v23.8A144.962,144.962,0,0,0,15.563,59.7H11.75A.253.253,0,0,1,11.5,59.451Z"/><path d="M126.25,49.059h-9.875a1.75,1.75,0,0,0,0,3.5h9.875a1.75,1.75,0,0,0,0-3.5Z"/><path d="M111.6,41.023a1.742,1.742,0,0,0,1.237-.512l6.982-6.983a1.749,1.749,0,1,0-2.474-2.474l-6.983,6.982a1.75,1.75,0,0,0,1.238,2.987Z"/><path d="M112.835,61.105a1.75,1.75,0,0,0-2.475,2.475l6.983,6.984a1.75,1.75,0,1,0,2.474-2.475Z"/></g></svg>
