<?xml version="1.0" standalone="no"?><!DOCTYPE svg PUBLIC "-//W3C//DTD SVG 1.1//EN" "http://www.w3.org/Graphics/SVG/1.1/DTD/svg11.dtd"><svg t="1600073262371" class="icon" viewBox="0 0 1024 1024" version="1.1" xmlns="http://www.w3.org/2000/svg" p-id="2483" xmlns:xlink="http://www.w3.org/1999/xlink" width="200" height="200"><defs><style type="text/css"></style></defs><path d="M444.8 604.8L320 483.2c-19.2-19.2-48-19.2-67.2 0-19.2 19.2-19.2 48 0 67.2l156.8 156.8c19.2 19.2 48 19.2 67.2 0l294.4-294.4c19.2-19.2 19.2-48 0-67.2-19.2-19.2-48-19.2-67.2 0l-259.2 259.2zM512 0c281.6 0 512 230.4 512 512s-230.4 512-512 512S0 793.6 0 512 230.4 0 512 0z" p-id="2484"></path></svg>