<?xml version="1.0" standalone="no"?><!DOCTYPE svg PUBLIC "-//W3C//DTD SVG 1.1//EN" "http://www.w3.org/Graphics/SVG/1.1/DTD/svg11.dtd"><svg t="1600683356147" class="icon" viewBox="0 0 1024 1024" version="1.1" xmlns="http://www.w3.org/2000/svg" p-id="18845" xmlns:xlink="http://www.w3.org/1999/xlink" width="200" height="200"><defs><style type="text/css"></style></defs><path d="M512.068267 0.068267a512 512 0 1 0 512 512 512 512 0 0 0-512-512z m229.376 740.693333a34.133333 34.133333 0 0 1-48.469334 0l-182.954666-184.32-185.685334 183.637333a34.6112 34.6112 0 0 1-49.152 0 34.133333 34.133333 0 0 1 0-48.469333l186.368-184.32-176.128-176.128a34.269867 34.269867 0 1 1 48.469334-48.469333l176.128 176.810666 178.858666-176.810666a34.542933 34.542933 0 0 1 49.152 0 34.133333 34.133333 0 0 1 0 48.469333l-179.541333 177.493333 182.272 183.637334a34.133333 34.133333 0 0 1 0.682667 48.469333z m0 0" fill="#333333" p-id="18846"></path></svg>