<svg id="Capa_1" enable-background="new 0 0 512 512" height="512" viewBox="0 0 512 512" width="512" xmlns="http://www.w3.org/2000/svg"><g><path d="m334.637 269.891-77.704-90.962h-1.866l-77.704 90.962v.631h49.197v184.33h58.88v-184.33h49.197z"/><path d="m404.743 126.197c-8.706 0-17.16 1.063-25.265 3.021-24.343-43.025-70.515-72.07-123.478-72.07s-99.135 29.045-123.478 72.07c-8.105-1.958-16.559-3.021-25.265-3.021-59.236 0-107.257 48.021-107.257 107.257s48.021 107.257 107.257 107.257h89.303v-40.189h-49.197v-41.7l93.875-109.892h29.524l93.875 109.892v41.7h-49.197v40.189h89.303c59.236 0 107.257-48.021 107.257-107.257s-48.021-107.257-107.257-107.257z"/></g></svg>