<svg id="Capa_1" enable-background="new 0 0 512 512" height="512" viewBox="0 0 512 512" width="512" xmlns="http://www.w3.org/2000/svg"><g><path d="m363 22v-22h-214v22h-119v490h452v-490zm0 114v-24h28.5v310h-271v-310h28.5v24zm-184-106h154v76h-154zm273 452h-392v-430h89v30h-58.5v370h331v-370h-58.5v-30h89z"/><path d="m151 180h129v30h-129z"/><path d="m151 240h46v30h-46z"/><path d="m238 289v59.819l-21.329-18.819h-45.671v30h34.329l34 30h28.671v-57.114l26.123 27.114h46.877v-30h-34.123l-39.5-41z"/></g></svg>