<?xml version="1.0" standalone="no"?><!DOCTYPE svg PUBLIC "-//W3C//DTD SVG 1.1//EN" "http://www.w3.org/Graphics/SVG/1.1/DTD/svg11.dtd"><svg t="1596078037955" class="icon" viewBox="0 0 1024 1024" version="1.1" xmlns="http://www.w3.org/2000/svg" p-id="2600" xmlns:xlink="http://www.w3.org/1999/xlink" width="200" height="200"><defs><style type="text/css"></style></defs><path d="M115.749234 93.244684c-11.571546 0.811482-21.648043 11.102872-22.459524 22.459524L66.272379 489.226321c-1.282203 17.72878 5.203512 35.139312 17.772782 47.708582l401.908626 401.638473c29.810956 29.791513 78.122265 29.795607 107.938338 0.00921l344.958566-344.607572c29.843702-29.813003 29.857005-78.177524 0.031722-108.007923L536.977881 84.002183c-12.56927-12.570293-29.980825-19.057031-47.710628-17.774829L115.749234 93.244684zM397.455197 397.410172c-33.352619 33.347502-86.814228 33.945113-119.438253 1.320065-32.625048-32.625048-32.023344-86.085634 1.323135-119.435183 33.349549-33.348526 86.810135-33.948183 119.435183-1.323135C431.400311 310.595944 430.8027 364.057553 397.455197 397.410172L397.455197 397.410172z" p-id="2601"></path></svg>