<?xml version="1.0" standalone="no"?><!DOCTYPE svg PUBLIC "-//W3C//DTD SVG 1.1//EN" "http://www.w3.org/Graphics/SVG/1.1/DTD/svg11.dtd"><svg t="1591776584804" class="icon" viewBox="0 0 1024 1024" version="1.1" xmlns="http://www.w3.org/2000/svg" p-id="866" xmlns:xlink="http://www.w3.org/1999/xlink" width="200" height="200"><defs><style type="text/css"></style></defs><path d="M384 736a352.512 352.512 0 0 1 230.016-330.176A292.736 292.736 0 0 0 640 288C640 128.96 640 0 448 0S256 128.96 256 288c0 99.072 57.472 198.08 128 237.824v52.8C166.912 596.352 0 703.04 0 832h397.312A352 352 0 0 1 384 736z" fill="" p-id="867"></path><path d="M736 448a288 288 0 1 0 0 576 288 288 0 0 0 0-576z m160 320h-128v128h-64v-128H576v-64h128V576h64v128h128v64z" fill="" p-id="868"></path></svg>