<?xml version="1.0" encoding="iso-8859-1"?>
<!-- Generator: Adobe Illustrator 19.0.0, SVG Export Plug-In . SVG Version: 6.00 Build 0)  -->
<svg version="1.1" id="Capa_1" xmlns="http://www.w3.org/2000/svg" xmlns:xlink="http://www.w3.org/1999/xlink" x="0px" y="0px"
	 viewBox="0 0 477.873 477.873" style="enable-background:new 0 0 477.873 477.873;" xml:space="preserve">
<g>
	<g>
		<path d="M467.335,69.581c-6.373-2.676-13.732-1.217-18.603,3.686l-73.045,73.062l-41.967-43.52l71.117-73.899
			c6.541-6.786,6.343-17.59-0.443-24.132c-3.185-3.07-7.438-4.784-11.862-4.779H273.065c-4.526,0.001-8.866,1.8-12.066,5.001
			l-68.267,68.267c-3.201,3.2-5,7.54-5.001,12.066v95.334L22.68,345.737c-30.228,30.228-30.228,79.237,0,109.466
			s79.237,30.228,109.466,0l165.052-165.069h95.334c4.523,0.004,8.863-1.789,12.066-4.983l68.267-68.267
			c3.205-3.204,5.004-7.551,5-12.083V85.333C477.859,78.437,473.705,72.222,467.335,69.581z M114.464,387.55l-17.067,17.067
			c-6.669,6.664-17.477,6.66-24.141-0.009c-6.664-6.669-6.66-17.477,0.009-24.141l17.067-17.067
			c6.669-6.664,17.477-6.66,24.141,0.008C121.137,370.078,121.133,380.886,114.464,387.55z"/>
	</g>
</g>
<g>
</g>
<g>
</g>
<g>
</g>
<g>
</g>
<g>
</g>
<g>
</g>
<g>
</g>
<g>
</g>
<g>
</g>
<g>
</g>
<g>
</g>
<g>
</g>
<g>
</g>
<g>
</g>
<g>
</g>
</svg>
